<svg xmlns="http://www.w3.org/2000/svg" width="106" height="60" fill="none"><path fill="#AFB1B8" d="M25.402 21.83H25.4c-2.262 0-4.096 1.788-4.096 3.992v.003c0 2.204 1.834 3.992 4.096 3.992h.003c2.262 0 4.096-1.788 4.096-3.992v-.003c0-2.204-1.834-3.991-4.096-3.991ZM55.637 20.555c-.007-3.063-1.258-5.998-3.48-8.163-2.22-2.165-5.232-3.385-8.374-3.392-3.143.006-6.156 1.225-8.379 3.39-2.223 2.166-3.474 5.101-3.48 8.165V37.44s23.71-2.573 23.713-16.883v-.002ZM13 42.982a7.96 7.96 0 0 0 2.422 5.68 8.384 8.384 0 0 0 5.827 2.362 8.384 8.384 0 0 0 5.826-2.361 7.96 7.96 0 0 0 2.424-5.678v-11.75S13 33.029 13 42.983Zm8.25 2.105a2.2 2.2 0 0 1-1.2-.354 2.117 2.117 0 0 1-.797-.945 2.056 2.056 0 0 1-.122-1.216 2.09 2.09 0 0 1 .59-1.078 2.179 2.179 0 0 1 1.107-.576c.419-.082.853-.04 1.248.12.395.159.732.429.97.775a2.068 2.068 0 0 1 .201 1.977c-.108.257-.267.49-.467.686-.201.196-.44.352-.702.458a2.21 2.21 0 0 1-.829.161v-.008ZM36.402 41.259v4.265h-.88V41.26h.88Zm1.7 1.822v.686h-1.94v-.686h1.94Zm.204-1.822v.688h-2.144v-.688h2.144Zm4.014 2.033v.202c0 .324-.044.615-.132.873a1.92 1.92 0 0 1-.372.66c-.16.18-.352.317-.574.413a1.83 1.83 0 0 1-.736.143c-.267 0-.512-.048-.735-.143a1.648 1.648 0 0 1-.574-.414 1.933 1.933 0 0 1-.378-.659 2.7 2.7 0 0 1-.132-.873v-.202c0-.326.044-.617.132-.873a1.92 1.92 0 0 1 .372-.66 1.63 1.63 0 0 1 .574-.415c.223-.096.468-.144.736-.144.269 0 .514.048.735.144.223.096.414.234.574.416.162.181.287.401.375.659.09.256.135.547.135.873Zm-.888.202v-.208c0-.226-.02-.426-.061-.598a1.297 1.297 0 0 0-.182-.433.785.785 0 0 0-.293-.264.838.838 0 0 0-.395-.09c-.149 0-.28.03-.396.09a.792.792 0 0 0-.29.264 1.335 1.335 0 0 0-.179.433 2.593 2.593 0 0 0-.061.598v.208c0 .225.02.424.061.598.041.172.102.317.182.436.08.117.178.206.293.267.115.06.247.09.395.09.149 0 .28-.03.396-.09a.786.786 0 0 0 .29-.267 1.37 1.37 0 0 0 .179-.436c.04-.174.061-.373.061-.598Zm3.741.914a.566.566 0 0 0-.035-.205.387.387 0 0 0-.123-.17 1.092 1.092 0 0 0-.255-.155 3.6 3.6 0 0 0-.425-.158 5.384 5.384 0 0 1-.55-.211 2.262 2.262 0 0 1-.457-.273 1.228 1.228 0 0 1-.31-.366 1.01 1.01 0 0 1-.112-.483 1 1 0 0 1 .117-.484c.078-.146.187-.271.328-.375.14-.105.307-.186.498-.243.194-.056.405-.085.636-.085.314 0 .589.057.823.17.234.113.416.269.545.466.13.197.196.423.196.677h-.873a.658.658 0 0 0-.079-.328.535.535 0 0 0-.234-.226.835.835 0 0 0-.393-.082.908.908 0 0 0-.38.07.508.508 0 0 0-.23.185.455.455 0 0 0-.075.258c0 .072.017.137.052.196a.594.594 0 0 0 .164.164c.073.05.162.099.267.144.105.044.228.088.366.131.233.07.437.15.613.238.177.088.326.186.445.296.119.109.209.233.27.372.06.138.09.296.09.471 0 .186-.036.352-.108.498-.072.147-.177.27-.314.373-.136.101-.3.178-.489.23-.19.054-.401.08-.636.08-.21 0-.419-.027-.624-.082a1.896 1.896 0 0 1-.56-.255 1.285 1.285 0 0 1-.398-.434c-.1-.175-.15-.383-.15-.623h.883c0 .132.02.245.061.336a.562.562 0 0 0 .173.223.742.742 0 0 0 .27.123c.105.026.22.038.345.038a.937.937 0 0 0 .375-.064.462.462 0 0 0 .293-.437Zm3.384-3.15v4.266h-.876V41.26h.876Zm1.313 0v.69h-3.48v-.69h3.48Zm3.363 3.58v.686h-2.27v-.685h2.27Zm-1.983-3.58v4.266h-.88V41.26h.88Zm1.687 1.738v.668h-1.975v-.668h1.975Zm.293-1.737v.688h-2.268v-.688h2.268Zm.516 0h1.59c.327 0 .607.049.841.146.237.098.418.242.545.434.127.191.19.427.19.706 0 .228-.038.425-.117.589a1.103 1.103 0 0 1-.325.407 1.686 1.686 0 0 1-.489.258l-.278.146H54.32l-.006-.685h1.028a.803.803 0 0 0 .384-.082.538.538 0 0 0 .229-.229.704.704 0 0 0 .079-.34.771.771 0 0 0-.076-.354.514.514 0 0 0-.232-.229.853.853 0 0 0-.39-.079h-.712v3.577h-.878V41.26Zm2.384 4.265-.972-1.901.928-.006.985 1.866v.041h-.94Zm4.615-1.52h-1.087v-.686h1.087a.89.89 0 0 0 .41-.082.525.525 0 0 0 .231-.234.859.859 0 0 0 0-.692.592.592 0 0 0-.231-.263.76.76 0 0 0-.41-.1h-.783v3.577h-.879V41.26h1.662c.334 0 .62.06.858.181.24.12.424.285.55.495.128.212.191.453.191.724 0 .276-.063.514-.19.715-.127.201-.31.356-.551.466-.238.11-.524.164-.858.164Zm5.068.835v.685h-2.27v-.685h2.27Zm-1.983-3.58v4.265h-.88V41.26h.88Zm1.687 1.737v.668h-1.974v-.668h1.974Zm.293-1.737v.688h-2.268v-.688h2.268Zm2.481 0v4.265h-.876V41.26h.876Zm1.313 0v.688h-3.48v-.688h3.48Zm3.363 3.58v.685h-2.27v-.685h2.27Zm-1.983-3.58v4.265h-.879V41.26h.879Zm1.687 1.737v.668h-1.974v-.668h1.974Zm.293-1.737v.688h-2.267v-.688h2.267Zm.516 0h1.59c.327 0 .607.049.842.146.236.098.418.242.544.434.127.191.191.427.191.706 0 .228-.04.425-.117.589a1.103 1.103 0 0 1-.325.407 1.687 1.687 0 0 1-.49.258l-.278.146h-1.383l-.006-.685h1.029a.803.803 0 0 0 .383-.082.537.537 0 0 0 .229-.229.704.704 0 0 0 .08-.34.771.771 0 0 0-.077-.354.514.514 0 0 0-.232-.229.853.853 0 0 0-.39-.079h-.711v3.577h-.879V41.26Zm2.385 4.265-.973-1.901.929-.006.984 1.866v.041h-.94Zm3.68-1.116a.566.566 0 0 0-.036-.205.387.387 0 0 0-.123-.17 1.09 1.09 0 0 0-.255-.155c-.109-.05-.25-.104-.424-.158a5.384 5.384 0 0 1-.551-.211 2.262 2.262 0 0 1-.457-.273 1.228 1.228 0 0 1-.31-.366 1.01 1.01 0 0 1-.112-.483 1 1 0 0 1 .117-.484c.078-.146.188-.271.328-.375.14-.105.307-.186.498-.243.194-.056.406-.085.636-.085.314 0 .589.057.823.17.235.113.416.269.545.466.131.197.196.423.196.677h-.873a.658.658 0 0 0-.079-.328.535.535 0 0 0-.234-.226.835.835 0 0 0-.393-.082.909.909 0 0 0-.38.07.508.508 0 0 0-.23.185.455.455 0 0 0-.075.258c0 .072.017.137.052.196a.594.594 0 0 0 .165.164c.072.05.16.099.266.144.106.044.228.088.366.131.233.07.437.15.613.238a1.9 1.9 0 0 1 .445.296c.12.109.209.233.27.372.06.138.09.296.09.471 0 .186-.036.352-.108.498-.072.147-.177.27-.314.373-.136.101-.3.178-.489.23-.19.054-.401.08-.636.08-.21 0-.419-.027-.624-.082a1.896 1.896 0 0 1-.56-.255 1.285 1.285 0 0 1-.398-.434c-.1-.175-.149-.383-.149-.623h.882c0 .132.02.245.061.336a.562.562 0 0 0 .173.223.741.741 0 0 0 .27.123c.105.026.22.038.345.038a.937.937 0 0 0 .375-.064.462.462 0 0 0 .293-.437Z"/></svg>