<svg xmlns="http://www.w3.org/2000/svg" width="106" height="60" fill="none"><path fill="#AFB1B8" d="M27.488 45.278c.23.285.352.643.346 1.01a1.604 1.604 0 0 1-.537 1.277c-.446.339-1 .504-1.558.466H23v-6.405h2.683a2.284 2.284 0 0 1 1.487.426 1.463 1.463 0 0 1 .52 1.198c.016.353-.095.7-.311.98-.209.254-.496.43-.817.5.363.067.691.26.926.548Zm-3.213-.967h1.147c.26.02.519-.056.729-.213a.761.761 0 0 0 .246-.626.787.787 0 0 0-.243-.625 1.106 1.106 0 0 0-.751-.216h-1.128v1.68Zm1.988 2.456a.796.796 0 0 0 .271-.65.81.81 0 0 0-.277-.658 1.18 1.18 0 0 0-.78-.231h-1.202v1.761h1.218c.274.016.546-.062.77-.222ZM32.972 48.031l-1.492-2.503h-.561v2.503h-1.284v-6.405h2.43a2.39 2.39 0 0 1 1.693.545 2.047 2.047 0 0 1 .18 2.65c-.3.345-.709.575-1.159.65l1.59 2.56h-1.397Zm-2.053-3.376h1.05c.73 0 1.094-.323 1.094-.97a.956.956 0 0 0-.268-.72 1.135 1.135 0 0 0-.826-.26h-1.063l.013 1.95ZM39.99 46.742h-2.558l-.452 1.29h-1.346l2.35-6.334h1.455l2.34 6.333h-1.346l-.443-1.289Zm-.342-.97-.935-2.703-.935 2.703h1.87ZM48.776 48.031H47.5l-2.857-4.355v4.355h-1.272v-6.405h1.272l2.857 4.38v-4.38h1.275v6.405ZM56.05 46.498a2.757 2.757 0 0 1-1.153 1.13c-.555.281-1.17.42-1.792.403h-2.27v-6.405h2.27a3.816 3.816 0 0 1 1.792.395c.488.246.89.636 1.153 1.117a3.735 3.735 0 0 1 0 3.36Zm-1.459-.153a2.352 2.352 0 0 0 0-3.057 2.21 2.21 0 0 0-1.595-.545h-.885v4.146h.885a2.21 2.21 0 0 0 1.595-.544ZM40.789 6S57.24 12.236 56.89 21.26v15.263s-16.439-6.24-16.096-15.263L40.789 6ZM71.547 32.95A22.486 22.486 0 0 1 82 29.082v-4.778a21.467 21.467 0 0 0-10.453 8.646Z"/><path fill="#AFB1B8" d="M69.68 34.389A22.382 22.382 0 0 1 82 23.303V9.536s-23.43 8.883-22.934 21.733V53s1.044-.397 2.687-1.142c0-.695 0-1.395.075-2.1A22.606 22.606 0 0 1 69.68 34.39Z"/><path fill="#AFB1B8" d="M67.453 42.462c.123-1.507.397-2.998.82-4.45a21.04 21.04 0 0 0-4.962 13.126 68.028 68.028 0 0 0 4.506-2.384 22.573 22.573 0 0 1-.364-6.292ZM68.385 42.54a21.58 21.58 0 0 0 .29 5.698c6.4-3.846 13.593-9.788 13.316-16.968v-.626a20.972 20.972 0 0 0-12.18 5.713 21.492 21.492 0 0 0-1.426 6.183Z"/></svg>