<svg xmlns="http://www.w3.org/2000/svg" width="106" height="60" fill="none"><path fill="#AFB1B8" d="M53.74 28.353a3.259 3.259 0 0 1-.57-2.057v-2.982c0-.915.189-1.61.567-2.085.378-.475 1.028-.712 1.949-.71.865 0 1.48.202 1.843.607.396.516.589 1.147.544 1.784v.7h-1.547v-.71a3.961 3.961 0 0 0-.045-.694.69.69 0 0 0-.221-.413.836.836 0 0 0-.561-.16.886.886 0 0 0-.59.17.81.81 0 0 0-.257.455c-.044.243-.064.49-.06.737v3.62c-.025.349.044.698.198 1.016a.734.734 0 0 0 .31.247.78.78 0 0 0 .399.057.788.788 0 0 0 .548-.164.748.748 0 0 0 .23-.44c.037-.24.053-.483.049-.725v-.735h1.547v.67a2.914 2.914 0 0 1-.535 1.876c-.355.443-.961.664-1.852.664-.891 0-1.564-.236-1.946-.728ZM60.186 28.384c-.391-.465-.587-1.141-.587-2.036V23.21c0-.886.196-1.556.587-2.011.39-.455 1.044-.682 1.961-.68.91 0 1.56.227 1.952.68.39.455.59 1.125.59 2.011v3.138c0 .886-.2 1.565-.597 2.033-.397.467-1.044.7-1.945.7-.9 0-1.567-.236-1.961-.697Zm2.682-.753c.14-.29.204-.61.186-.928v-3.841a1.843 1.843 0 0 0-.183-.91.738.738 0 0 0-.316-.25.784.784 0 0 0-.408-.054.794.794 0 0 0-.41.054.75.75 0 0 0-.318.25c-.14.283-.204.596-.185.91v3.859c-.02.32.044.638.185.928a.96.96 0 0 0 .327.23 1.008 1.008 0 0 0 .796 0 .96.96 0 0 0 .326-.23v-.018ZM66.55 20.61h1.667l1.253 5.79 1.282-5.79h1.622l.163 8.356H71.34l-.129-5.807-1.237 5.807h-.961l-1.282-5.828-.119 5.828H66.4l.15-8.355ZM74.406 20.61h2.596c1.496 0 2.244.791 2.244 2.373 0 1.515-.788 2.271-2.362 2.27h-.885v3.713h-1.602l.01-8.355Zm2.218 3.571c.158.02.319.006.471-.04.152-.045.292-.122.41-.223.184-.283.265-.614.231-.944a2.859 2.859 0 0 0-.077-.759.633.633 0 0 0-.118-.229.672.672 0 0 0-.202-.168 1.529 1.529 0 0 0-.715-.133h-.622v2.496h.622ZM81.556 20.61h1.721l1.766 8.356h-1.494l-.349-1.927h-1.535l-.36 1.927H79.79l1.766-8.355Zm1.471 5.462-.6-3.508-.599 3.508h1.199ZM86.469 20.61h1.122l2.147 4.767V20.61h1.33v8.355h-1.067l-2.16-4.976v4.976h-1.375l.003-8.355ZM94.184 25.78l-1.786-5.158h1.504l1.09 3.313 1.022-3.313h1.47l-1.762 5.158v3.186h-1.538V25.78ZM56.215 32.619v.437h-1.308v3.395h-.548v-3.395h-1.314v-.437h3.17ZM60.314 36.451h-.423a.177.177 0 0 1-.119-.036.196.196 0 0 1-.07-.088l-.378-.91H57.51l-.378.91a.258.258 0 0 1-.058.103.183.183 0 0 1-.119.036h-.423l1.603-3.831h.557l1.622 3.816Zm-2.654-1.423h1.513l-.64-1.56a2.964 2.964 0 0 1-.12-.36l-.06.203-.058.16-.635 1.557ZM63.077 36.075c.1.005.2.005.3 0 .087-.009.173-.024.257-.046a1.82 1.82 0 0 0 .231-.07c.07-.027.141-.06.215-.094v-.861h-.641a.12.12 0 0 1-.087-.03.087.087 0 0 1-.032-.07v-.295h1.244v1.469a2.355 2.355 0 0 1-.676.312 2.655 2.655 0 0 1-.401.08 4.459 4.459 0 0 1-.468.024 2.252 2.252 0 0 1-.808-.143 1.937 1.937 0 0 1-.64-.4 1.849 1.849 0 0 1-.414-.607 2.076 2.076 0 0 1-.147-.795 2.155 2.155 0 0 1 .144-.801c.092-.228.233-.434.413-.607.183-.173.401-.308.641-.398.275-.098.566-.146.859-.143.15 0 .298.011.446.034.13.02.258.053.38.097.113.04.22.09.321.152.099.06.192.127.28.2l-.155.237a.14.14 0 0 1-.052.052.15.15 0 0 1-.073.02.196.196 0 0 1-.099-.03 1.923 1.923 0 0 1-.157-.09 1.372 1.372 0 0 0-.215-.104 1.873 1.873 0 0 0-.295-.085 2.255 2.255 0 0 0-.407-.033 1.743 1.743 0 0 0-.618.106 1.337 1.337 0 0 0-.471.303c-.133.138-.235.3-.298.477a1.954 1.954 0 0 0 0 1.277c.07.18.179.345.32.483.132.131.291.234.468.303.204.066.42.092.635.076ZM68.185 36.014h1.75v.437H67.65v-3.832h.548l-.013 3.395ZM71.756 36.45h-.549V32.62h.549v3.832ZM73.794 32.637c.032.018.06.041.083.07l2.343 2.889a.972.972 0 0 1 0-.137v-2.855h.478v3.847h-.276a.24.24 0 0 1-.119-.021.314.314 0 0 1-.086-.073l-2.34-2.885v2.979h-.458V32.62h.285c.031 0 .062.006.09.018ZM80.732 32.619v.422H78.79v1.265h1.574v.406H78.79v1.308h1.942v.422h-2.506v-3.823h2.506ZM23.303 8.954l24.335 6.541v22.922L23.305 31.88V8.954ZM21.744 7v25.992l27.453 7.382v-25.99L21.743 7Z"/><path fill="#AFB1B8" d="M36.456 52.44 9 45.052v-25.99l27.456 7.385V52.44Z"/><path fill="#AFB1B8" d="m22.198 8.66 24.017 6.459-10.214 9.672-24.02-6.462 10.217-9.67ZM21.743 7 9 19.063l27.456 7.385 12.74-12.063L21.743 7ZM38.002 50.978l11.194-10.6-11.194-3.013v13.613Z"/></svg>