<svg xmlns="http://www.w3.org/2000/svg" width="106" height="60" fill="none"><path fill="#AFB1B8" d="M49.977 6.935h.137c.253 0 .526.025.796.048 1.193.084 2.377.263 3.542.534V4.654c-1.2-.301-2.422-.496-3.655-.583A29.236 29.236 0 0 0 49.319 4h-.427c-2.475.01-4.94.327-7.337.946-2.73.68-5.35 1.747-7.783 3.166v28.397a31.633 31.633 0 0 1 7.42-2.892 32.36 32.36 0 0 1 6.227-.956h.084c.352-.018.703-.028 1.065-.03v-2.91a34.329 34.329 0 0 0-8.095 1.076c-.98.255-1.925.53-2.813.834l-1.012.344V9.833l.432-.208a28.275 28.275 0 0 1 10.516-2.683.627.627 0 0 1 .092 0c.402-.02.806-.03 1.204-.03h.455c.21.005.42.01.63.023Z"/><path fill="#AFB1B8" d="M57.111 9.933a25.915 25.915 0 0 1-4.235-.344c-.45-.076-.893-.168-1.323-.267v28.072c1.82.45 3.69.67 5.566.656a29.943 29.943 0 0 0 7.336-.944 29.814 29.814 0 0 0 7.786-3.166V6.05a31.774 31.774 0 0 1-7.417 2.893c-2.52.648-5.111.98-7.713.99Zm11.224.485 1.012-.34v22.148l-.432.209a27.761 27.761 0 0 1-5.174 1.859c-2.163.56-4.386.847-6.62.857-.668 0-1.33-.028-1.973-.084l-.693-.061V12.228l.807.054a28.38 28.38 0 0 0 1.854.056 34.263 34.263 0 0 0 8.406-1.078c.944-.25 1.882-.529 2.813-.842ZM35.737 46.212a1.492 1.492 0 0 0-1.126-.455 1.672 1.672 0 0 0-.65.122 1.464 1.464 0 0 0-.832.842c-.08.2-.119.413-.116.628v3.794c-.01.267.042.533.149.778.09.195.219.368.38.509.151.127.33.22.52.27.185.051.376.078.567.078.212.002.42-.043.612-.132a1.599 1.599 0 0 0 .96-1.465v-.424h-.992v.338a.881.881 0 0 1-.059.338.609.609 0 0 1-.144.214.697.697 0 0 1-.415.145.503.503 0 0 1-.465-.204.898.898 0 0 1-.132-.508v-3.538c-.006-.196.036-.39.122-.567a.507.507 0 0 1 .485-.229.527.527 0 0 1 .443.214.806.806 0 0 1 .165.509v.328h.981v-.387a1.786 1.786 0 0 0-.121-.664 1.562 1.562 0 0 0-.332-.534ZM41.629 46.17a1.765 1.765 0 0 0-1.129-.418c-.202 0-.402.037-.592.107A1.558 1.558 0 0 0 39 46.7c-.1.231-.149.482-.144.735v3.638c-.007.256.042.51.144.745.09.196.221.37.385.509.151.14.33.25.523.32.19.07.39.106.592.107a1.715 1.715 0 0 0 1.129-.427c.158-.142.285-.315.374-.509.102-.234.151-.489.144-.745v-3.639a1.771 1.771 0 0 0-.144-.734 1.644 1.644 0 0 0-.374-.532Zm-.463 4.904a.654.654 0 0 1-.198.527.726.726 0 0 1-.933 0 .653.653 0 0 1-.197-.527v-3.639a.656.656 0 0 1 .197-.526.727.727 0 0 1 .933 0 .651.651 0 0 1 .198.526v3.64ZM49.367 52.7v-6.89h-.953l-1.252 3.647h-.018l-1.262-3.646h-.944v6.888h.984v-4.19h.018l.964 2.962h.49l.972-2.962h.017v4.19h.984ZM54.958 46.294c-.151-.17-.343-.3-.556-.377a2.184 2.184 0 0 0-.714-.107h-1.462v6.89h.982v-2.691h.506c.306.014.61-.051.885-.188a1.43 1.43 0 0 0 .539-.527c.113-.183.19-.387.225-.6a4.9 4.9 0 0 0 .053-.783c.01-.33-.023-.662-.096-.984a1.465 1.465 0 0 0-.362-.633Zm-.506 2.1a.868.868 0 0 1-.09.359.552.552 0 0 1-.254.241 1.006 1.006 0 0 1-.463.087h-.448v-2.342h.506a.942.942 0 0 1 .443.086.556.556 0 0 1 .23.254c.054.121.083.252.086.384v.458c0 .16.01.326 0 .473h-.01ZM59.607 45.81h-.804l-1.518 6.89h.982l.288-1.48h1.338l.289 1.48h.981l-1.556-6.89Zm-.905 4.471.483-2.497h.018l.48 2.497h-.981ZM65.95 49.96h-.018l-1.483-4.15h-.943v6.89h.981v-4.143h.02l1.5 4.142h.924v-6.888h-.981v4.15ZM71.948 45.81l-.79 2.74h-.02l-.79-2.74H69.31l1.348 3.978v2.911h.982v-2.911l1.348-3.977h-1.04ZM33 54.645h.473v1.327h.321v-1.328h.47v-.272H33v.273ZM36.977 54.372l-.62 1.6h.341l.132-.364h.638l.136.364h.35l-.636-1.6h-.341Zm-.05.967.217-.593.217.593h-.435ZM40.908 55.382h.37v.206a.613.613 0 0 1-.38.135.404.404 0 0 1-.34-.153.67.67 0 0 1-.118-.417c0-.356.154-.534.46-.534a.337.337 0 0 1 .362.255l.316-.062c-.068-.312-.293-.47-.678-.47a.804.804 0 0 0-.559.206.78.78 0 0 0-.23.615.872.872 0 0 0 .205.6.776.776 0 0 0 .607.235.96.96 0 0 0 .678-.255v-.63h-.693v.27ZM44.922 54.372H44.6v1.6h1.12V55.7h-.797v-1.328ZM48.318 54.372h-.324v1.6h.324v-1.6ZM51.636 55.44l-.655-1.068h-.314v1.6h.301v-1.045l.643 1.045h.321v-1.6h-.296v1.069ZM54.637 55.267h.797v-.272h-.797v-.35h.857v-.273h-1.181v1.6h1.214V55.7h-.89v-.433ZM61.912 55.003h-.63v-.63h-.321v1.599h.321v-.7h.63v.7h.321v-1.6h-.32v.631ZM64.93 55.267h.8v-.272h-.8v-.35h.86v-.273H64.61v1.6h1.212V55.7h-.89v-.433ZM69.023 55.268c.279-.044.42-.191.42-.445a.383.383 0 0 0-.156-.356.904.904 0 0 0-.468-.094h-.678v1.599h.32v-.669h.064a.432.432 0 0 1 .2.036c.047.029.086.069.114.117l.349.508h.384l-.194-.312a1.114 1.114 0 0 0-.355-.384Zm-.323-.222h-.238v-.401h.253a.84.84 0 0 1 .326.038.208.208 0 0 1 .046.255.208.208 0 0 1-.061.07.912.912 0 0 1-.326.038ZM72.11 55.267h.796v-.272h-.797v-.35h.86v-.273h-1.183v1.6H73V55.7h-.89v-.433Z"/></svg>