<svg xmlns="http://www.w3.org/2000/svg" width="106" height="60" fill="none"><path fill="#AFB1B8" d="M38.346 50.795a.117.117 0 0 1 .08.034l.205.216c-.16.174-.357.314-.579.409-.26.104-.539.154-.82.147a2.01 2.01 0 0 1-.772-.137 1.671 1.671 0 0 1-.957-.986 2.163 2.163 0 0 1-.13-.767 2.016 2.016 0 0 1 .14-.77c.09-.222.226-.425.4-.597.175-.17.385-.302.617-.39.253-.094.523-.14.794-.137.253-.006.504.036.739.125.203.084.39.2.553.345l-.173.23a.173.173 0 0 1-.043.042.11.11 0 0 1-.07.018.157.157 0 0 1-.074-.025l-.093-.061-.129-.079a1.401 1.401 0 0 0-.406-.137 1.642 1.642 0 0 0-.306-.024 1.533 1.533 0 0 0-.571.102 1.29 1.29 0 0 0-.448.29c-.128.133-.227.29-.29.46-.073.195-.108.401-.106.608-.003.21.033.42.106.618.063.169.16.325.285.458.118.125.264.222.427.285.168.066.348.1.53.098.105.001.21-.005.314-.02.17-.02.332-.076.476-.164.072-.045.14-.096.203-.152a.153.153 0 0 1 .098-.04ZM44.287 49.71c.003.26-.044.52-.139.763a1.655 1.655 0 0 1-.387.592 1.754 1.754 0 0 1-.608.388 2.296 2.296 0 0 1-1.564 0 1.778 1.778 0 0 1-.605-.39 1.74 1.74 0 0 1-.39-.597 2.166 2.166 0 0 1 0-1.527c.087-.223.22-.427.39-.6a1.78 1.78 0 0 1 .605-.375 2.258 2.258 0 0 1 1.564 0c.228.088.435.22.607.39.17.17.301.37.388.59.095.245.143.505.14.767Zm-.54 0a1.759 1.759 0 0 0-.098-.612 1.208 1.208 0 0 0-.71-.747 1.658 1.658 0 0 0-1.137 0 1.207 1.207 0 0 0-.712.747c-.13.4-.13.827 0 1.226a1.203 1.203 0 0 0 .712.745c.367.13.77.13 1.137 0 .166-.064.314-.162.435-.287.123-.134.217-.29.275-.458.07-.198.102-.405.098-.613ZM48.34 50.353l.055.137c.02-.049.038-.093.059-.137a1.32 1.32 0 0 1 .067-.135l1.314-2.276c.026-.04.049-.064.075-.071a.322.322 0 0 1 .108-.012h.388v3.702h-.46v-2.837a1.085 1.085 0 0 1 0-.128l-1.322 2.309a.202.202 0 0 1-.078.084.216.216 0 0 1-.113.03h-.074c-.04.001-.08-.01-.113-.03a.2.2 0 0 1-.078-.084l-1.36-2.324v2.973h-.445v-3.695h.388a.322.322 0 0 1 .108.012.15.15 0 0 1 .072.071l1.343 2.279a.805.805 0 0 1 .067.132ZM53.287 50.17v1.386h-.514V47.86h1.147a2.25 2.25 0 0 1 .64.08c.167.045.321.124.453.23.114.1.202.225.257.363.06.151.09.312.087.473.003.162-.03.323-.095.473a1.012 1.012 0 0 1-.278.37 1.27 1.27 0 0 1-.455.245c-.2.061-.41.09-.62.086l-.622-.01Zm0-.398h.622c.136.002.27-.017.399-.056a.843.843 0 0 0 .288-.16.651.651 0 0 0 .175-.244.768.768 0 0 0 .062-.312.677.677 0 0 0-.052-.3.707.707 0 0 0-.18-.253 1.033 1.033 0 0 0-.692-.199h-.622v1.524ZM60.2 51.561h-.406a.181.181 0 0 1-.113-.034.226.226 0 0 1-.067-.086l-.35-.894h-1.756l-.363.894a.2.2 0 0 1-.064.083.18.18 0 0 1-.116.037h-.406l1.543-3.703h.535l1.564 3.703Zm-2.546-1.375h1.451l-.612-1.507a2.614 2.614 0 0 1-.116-.348l-.06.194a1.842 1.842 0 0 1-.056.157l-.607 1.504ZM62.423 47.875c.031.017.057.04.078.067l2.25 2.79V47.859h.46v3.703h-.257a.23.23 0 0 1-.105-.022.283.283 0 0 1-.082-.069l-2.248-2.788c.002.042.002.085 0 .127v2.753h-.46v-3.704h.272c.032 0 .063.005.092.017ZM69.003 50.088v1.47h-.515v-1.47l-1.422-2.23h.46a.173.173 0 0 1 .11.032.317.317 0 0 1 .07.084l.89 1.438a1.542 1.542 0 0 1 .157.328l.067-.159c.025-.058.054-.115.088-.169l.877-1.448a.373.373 0 0 1 .067-.079.161.161 0 0 1 .11-.036h.466l-1.425 2.24ZM48.086 41.644c.224.027.45.05.679.069 3.47-1.48 6.407-3.9 8.441-6.96 2.034-3.06 3.077-6.624 2.997-10.246l-3.825-3.644a20.22 20.22 0 0 1-1.05 11.512c-1.465 3.67-3.972 6.88-7.242 9.27Z"/><path fill="#AFB1B8" d="m46.72 41.475.103.02c3.494-2.382 6.158-5.707 7.648-9.546a19.54 19.54 0 0 0 .706-11.99l-5.447-5.19a24.082 24.082 0 0 1 2.557 13.768c-.532 4.728-2.463 9.214-5.567 12.938ZM65.196 28.786c-.926 3.98-3.173 7.568-6.41 10.234a20.213 20.213 0 0 1-3.045 2.082 18.187 18.187 0 0 0 7.08-3.813 17.084 17.084 0 0 0 4.584-6.4l-2.21-2.103Z"/><path fill="#AFB1B8" d="m64.33 28.2-3.146-2.997a18.475 18.475 0 0 1-2.953 9.67c-1.873 2.916-4.532 5.299-7.699 6.903h.016c.705 0 1.41-.04 2.111-.12a19.338 19.338 0 0 0 7.611-5.33 18.093 18.093 0 0 0 4.06-8.126ZM47.176 12.58 43.423 9c-3.355 1.235-6.24 3.406-8.278 6.23-2.039 2.823-3.135 6.167-3.145 9.593.013 3.787 1.35 7.46 3.801 10.441 2.451 2.98 5.875 5.097 9.731 6.015 3.442-3.995 5.457-8.932 5.753-14.093.295-5.161-1.144-10.277-4.11-14.606ZM73 27.649c-.013-4.492-1.892-8.797-5.227-11.973-3.334-3.177-7.852-4.967-12.567-4.98-2.179-.002-4.339.381-6.371 1.13l22.977 21.89A16.07 16.07 0 0 0 73 27.65Z"/></svg>